<?xml version="1.0" encoding="UTF-8" standalone="no"?>
<!-- Created with Inkscape (http://www.inkscape.org/) -->

<svg
   version="1.1"
   id="svg1"
   width="32"
   height="32"
   viewBox="0 0 32 32"
   xml:space="preserve"
   xmlns="http://www.w3.org/2000/svg"
   xmlns:svg="http://www.w3.org/2000/svg"><defs
     id="defs1" /><path
     style="opacity:1;fill:#848691;fill-opacity:1;stroke:#777984;stroke-width:1.1;stroke-dasharray:none;stroke-opacity:1"
     d="m 16.816101,11.46875 c 0,0 0.740902,-2.3573873 1.394836,-3.1953125 C 18.864871,7.4355123 20.5,6.5078125 20.5,6.5078125 h 0.96875 c 0,0 1.792934,0.913219 2.43792,1.765625 0.644986,0.852406 1.171875,3.1953125 1.171875,3.1953125 z"
     id="path133" /><path
     style="display:inline;opacity:1;fill:#685554;fill-opacity:1;stroke:#5b4a49;stroke-width:1.1;stroke-dasharray:none;stroke-opacity:1"
     d="m 6.4579844,23.421969 v 2.100166 h 9.0099766 l -0.02089,-2.037666"
     id="path137" /><path
     style="display:inline;opacity:1;fill:#848691;fill-opacity:1;stroke:#777984;stroke-width:1.1;stroke-dasharray:none;stroke-opacity:1"
     d="m 6.6104432,19.445798 c 0,0 0.5038278,-0.751335 0.820312,-1.085937 0.3164842,-0.334602 1.0703128,-0.90625 1.0703128,-0.90625 h 4.96875 c 0,0 0.958085,0.560257 1.28167,0.90625 0.323585,0.345993 0.663642,1.085937 0.663642,1.085937 z"
     id="path134" /><path
     style="display:inline;opacity:1;fill:#996955;fill-opacity:1;stroke:#8c614e;stroke-width:1.1;stroke-dasharray:none;stroke-opacity:1"
     d="m 24.492972,12.53125 c 0,0 0.31876,3.122601 -0.800395,4.302058 -1.119155,1.179457 -1.187866,4.135442 -1.187866,4.135442 H 19.53125 c 0,0 -0.120332,-3.304892 -1.238696,-4.179636 C 17.17419,15.91437 17.423771,12.53125 17.423771,12.53125 Z"
     id="path135" /><path
     style="display:inline;opacity:1;fill:#996955;fill-opacity:1;stroke:#8c614e;stroke-width:1.1;stroke-dasharray:none;stroke-opacity:1"
     d="m 14.560331,20.546969 c 0.550536,0.695549 0.762213,0.577612 0.886739,2.9375 l -8.9890856,-0.0625 c -0.017391,-1.161454 0.1473596,-2.496433 1.033146,-2.875 z"
     id="path136" /><path
     style="display:inline;opacity:1;fill:#685554;fill-opacity:1;stroke:#5b4a49;stroke-width:1.1;stroke-dasharray:none;stroke-opacity:1"
     d="m 18.489234,24.174213 v 1.347922 h 5.009977 l -0.01348,-1.314741 -0.826822,-2.189652 h -3.263694 z"
     id="path138" /><path
     style="opacity:1;fill:#685554;fill-opacity:1;stroke:#7f4724;stroke-width:0.7;stroke-dasharray:none;stroke-opacity:1"
     d="m 6.993728,21.51875 h 7.988097"
     id="path139" /><path
     style="display:inline;opacity:1;fill:#685554;fill-opacity:1;stroke:#7f4724;stroke-width:0.7;stroke-dasharray:none;stroke-opacity:1"
     d="m 18.064201,16.553611 h 5.84622"
     id="path140" /><path
     style="display:inline;opacity:1;fill:#685554;fill-opacity:1;stroke:#7f4724;stroke-width:0.7;stroke-dasharray:none;stroke-opacity:1"
     d="m 19.16373,18.449704 h 3.717754"
     id="path141" /><rect
     style="display:inline;opacity:1;fill:#36312f;fill-opacity:1;stroke:#3f3733;stroke-width:0.4;stroke-dasharray:none;stroke-opacity:1"
     id="rect141"
     width="1.5859375"
     height="2.59375"
     x="20.203125"
     y="12.195312" /></svg>
